<svg xmlns="http://www.w3.org/2000/svg" viewBox="0 0 1200 760">
  <defs>
    <radialGradient id="bg" cx="50%" cy="30%" r="80%">
      <stop offset="0%" stop-color="#233040"/><stop offset="55%" stop-color="#07080d"/><stop offset="100%" stop-color="#020204"/>
    </radialGradient>
    <linearGradient id="beamA" x1="0" y1="0" x2="1" y2="1"><stop stop-color="#92f1ff" stop-opacity=".85"/><stop offset="1" stop-color="#92f1ff" stop-opacity="0"/></linearGradient>
    <linearGradient id="beamB" x1="1" y1="0" x2="0" y2="1"><stop stop-color="#ff6978" stop-opacity=".72"/><stop offset="1" stop-color="#ff6978" stop-opacity="0"/></linearGradient>
    <linearGradient id="beamC" x1=".5" y1="0" x2=".5" y2="1"><stop stop-color="#c8ff52" stop-opacity=".55"/><stop offset="1" stop-color="#c8ff52" stop-opacity="0"/></linearGradient>
    <filter id="blur"><feGaussianBlur stdDeviation="18"/></filter>
    <filter id="noise"><feTurbulence type="fractalNoise" baseFrequency=".8" numOctaves="5"/><feColorMatrix type="saturate" values="0"/><feComponentTransfer><feFuncA type="table" tableValues="0 .18"/></feComponentTransfer></filter>
  </defs>
  <rect width="1200" height="760" fill="url(#bg)"/>
  <polygon points="80,0 380,0 610,760 170,760" fill="url(#beamA)" filter="url(#blur)" opacity=".58"/>
  <polygon points="1120,0 760,0 520,760 1060,760" fill="url(#beamB)" filter="url(#blur)" opacity=".52"/>
  <polygon points="510,0 690,0 820,760 370,760" fill="url(#beamC)" filter="url(#blur)" opacity=".45"/>
  <g opacity=".32" stroke="#f4f1e8" stroke-width="1">
    <path d="M0 506 C210 458 376 555 610 500 S1014 432 1200 488" fill="none"/>
    <path d="M0 552 C210 510 390 602 620 548 S1040 490 1200 525" fill="none" opacity=".5"/>
  </g>
  <g fill="#030306">
    <rect x="0" y="596" width="1200" height="164"/>
    <ellipse cx="205" cy="590" rx="42" ry="18"/><rect x="196" y="556" width="18" height="44" rx="7"/>
    <ellipse cx="460" cy="610" rx="54" ry="20"/><rect x="448" y="568" width="24" height="54" rx="9"/>
    <ellipse cx="718" cy="585" rx="46" ry="17"/><rect x="707" y="550" width="21" height="48" rx="8"/>
    <ellipse cx="960" cy="604" rx="58" ry="23"/><rect x="948" y="562" width="25" height="55" rx="10"/>
  </g>
  <rect width="1200" height="760" filter="url(#noise)"/>
  <g opacity=".22" fill="#fff"><circle cx="162" cy="126" r="2"/><circle cx="1028" cy="183" r="1.6"/><circle cx="720" cy="96" r="1.4"/><circle cx="352" cy="225" r="1.7"/></g>
</svg>