<svg xmlns="http://www.w3.org/2000/svg" viewBox="0 0 1100 780">
  <defs>
    <linearGradient id="g" x1="0" y1="0" x2="1" y2="1"><stop stop-color="#090b13"/><stop offset=".45" stop-color="#0b1526"/><stop offset="1" stop-color="#020204"/></linearGradient>
    <filter id="soft"><feGaussianBlur stdDeviation="10"/></filter>
    <filter id="grain"><feTurbulence baseFrequency=".75" numOctaves="4"/><feColorMatrix type="saturate" values="0"/><feComponentTransfer><feFuncA type="table" tableValues="0 .13"/></feComponentTransfer></filter>
  </defs>
  <rect width="1100" height="780" fill="url(#g)"/>
  <g filter="url(#soft)" opacity=".55"><circle cx="230" cy="170" r="130" fill="#92f1ff"/><circle cx="860" cy="245" r="170" fill="#ff6978"/><circle cx="550" cy="650" r="180" fill="#c8ff52" opacity=".52"/></g>
  <g fill="#06070b">
    <rect x="0" y="420" width="100" height="360"/><rect x="118" y="290" width="95" height="490"/><rect x="230" y="365" width="150" height="415"/><rect x="410" y="250" width="125" height="530"/><rect x="560" y="330" width="95" height="450"/><rect x="680" y="215" width="148" height="565"/><rect x="858" y="390" width="110" height="390"/><rect x="985" y="310" width="115" height="470"/>
  </g>
  <g fill="#f4f1e8" opacity=".42">
    <rect x="142" y="335" width="10" height="28"/><rect x="176" y="395" width="10" height="28"/><rect x="258" y="420" width="12" height="32"/><rect x="314" y="485" width="12" height="32"/><rect x="454" y="310" width="10" height="26"/><rect x="494" y="392" width="10" height="26"/><rect x="715" y="280" width="12" height="30"/><rect x="780" y="354" width="12" height="30"/><rect x="1016" y="365" width="11" height="28"/>
  </g>
  <g stroke="#92f1ff" stroke-width="1.6" opacity=".34"><path d="M0 515 H1100"/><path d="M0 555 H1100"/><path d="M0 602 H1100"/></g>
  <g stroke="#ff6978" stroke-width="2" opacity=".3"><path d="M0 230 C220 180 355 288 530 246 S875 136 1100 214" fill="none"/></g>
  <rect width="1100" height="780" filter="url(#grain)"/>
</svg>