<svg xmlns="http://www.w3.org/2000/svg" viewBox="0 0 1000 760">
  <defs>
    <linearGradient id="bg" x1="0" y1="0" x2="1" y2="1"><stop stop-color="#16120f"/><stop offset=".5" stop-color="#09070a"/><stop offset="1" stop-color="#171923"/></linearGradient>
    <filter id="grain"><feTurbulence type="fractalNoise" baseFrequency=".55" numOctaves="6"/><feComponentTransfer><feFuncA type="table" tableValues="0 .22"/></feComponentTransfer></filter>
    <filter id="glow"><feGaussianBlur stdDeviation="6" result="b"/><feMerge><feMergeNode in="b"/><feMergeNode in="SourceGraphic"/></feMerge></filter>
  </defs>
  <rect width="1000" height="760" fill="url(#bg)"/>
  <g transform="rotate(-7 500 380)">
    <rect x="130" y="170" width="740" height="420" rx="42" fill="#0b0d14" stroke="#f4f1e8" stroke-opacity=".18" stroke-width="3"/>
    <rect x="205" y="230" width="590" height="98" rx="15" fill="#f4f1e8" opacity=".08"/>
    <circle cx="337" cy="405" r="88" fill="#050609" stroke="#92f1ff" stroke-opacity=".42" stroke-width="4" filter="url(#glow)"/>
    <circle cx="663" cy="405" r="88" fill="#050609" stroke="#ff6978" stroke-opacity=".45" stroke-width="4" filter="url(#glow)"/>
    <circle cx="337" cy="405" r="24" fill="#f4f1e8" opacity=".22"/><circle cx="663" cy="405" r="24" fill="#f4f1e8" opacity=".22"/>
    <rect x="302" y="522" width="396" height="35" rx="16" fill="#f4f1e8" opacity=".08"/>
  </g>
  <g stroke="#c8ff52" stroke-width="3" opacity=".38" filter="url(#glow)"><path d="M0 110 C210 160 335 60 508 108 S786 196 1000 126" fill="none"/><path d="M0 650 C220 600 382 690 585 635 S810 568 1000 617" fill="none"/></g>
  <rect width="1000" height="760" filter="url(#grain)"/>
</svg>